HIERARCHY
ROOT hip
{
  OFFSET 0 0 0
  CHANNELS 6 Xposition Yposition Zposition Zrotation Yrotation Xrotation
  JOINT abdomen
  {
    OFFSET 0 20.6881 -0.73152
    CHANNELS 3 Zrotation Xrotation Yrotation
    JOINT chest
    {
      OFFSET 0 11.7043 -0.48768
      CHANNELS 3 Zrotation Xrotation Yrotation
      JOINT neck
      {
        OFFSET 0 22.1894 -2.19456
        CHANNELS 3 Zrotation Xrotation Yrotation
        JOINT head
        {
          OFFSET -0.24384 7.07133 1.2192
          CHANNELS 3 Zrotation Xrotation Yrotation
          JOINT leftEye
          {
            OFFSET 4.14528 8.04674 8.04672
            CHANNELS 3 Zrotation Xrotation Yrotation
            End Site
            {
              OFFSET 1 0 0
            }
          }
          JOINT rightEye
          {
            OFFSET -3.6576 8.04674 8.04672
            CHANNELS 3 Zrotation Xrotation Yrotation
            End Site
            {
              OFFSET 1 0 0
            }
          }
        }
      }
      JOINT rCollar
      {
        OFFSET -2.68224 19.2634 -4.8768
        CHANNELS 3 Zrotation Xrotation Yrotation
        JOINT rShldr
        {
          OFFSET -8.77824 -1.95073 1.46304
          CHANNELS 3 Zrotation Xrotation Yrotation
          JOINT rForeArm
          {
            OFFSET -28.1742 -1.7115 0.48768
            CHANNELS 3 Zrotation Xrotation Yrotation
            JOINT rHand
            {
              OFFSET -22.5879 0.773209 7.07136
              CHANNELS 3 Zrotation Xrotation Yrotation
              JOINT rThumb1
              {
                OFFSET -1.2192 -0.487915 3.41376
                CHANNELS 3 Zrotation Xrotation Yrotation
                JOINT rThumb2
                {
                  OFFSET -3.37035 -0.52449 3.41376
                  CHANNELS 3 Zrotation Xrotation Yrotation
                  End Site
                  {
                    OFFSET -1.78271 -1.18214 1.43049
                  }
                }
              }
              JOINT rIndex1
              {
                OFFSET -7.75947 0.938293 5.60832
                CHANNELS 3 Zrotation Xrotation Yrotation
                JOINT rIndex2
                {
                  OFFSET -2.54057 -0.884171 1.56538
                  CHANNELS 3 Zrotation Xrotation Yrotation
                  End Site
                  {
                    OFFSET -1.62519 -0.234802 1.16502
                  }
                }
              }
              JOINT rMid1
              {
                OFFSET -8.24714 1.18213 3.41376
                CHANNELS 3 Zrotation Xrotation Yrotation
                JOINT rMid2
                {
                  OFFSET -3.10165 -0.590103 1.0647
                  CHANNELS 3 Zrotation Xrotation Yrotation
                  End Site
                  {
                    OFFSET -2.48547 -0.328903 0.83742
                  }
                }
              }
              JOINT rRing1
              {
                OFFSET -8.82822 0.546677 1.51678
                CHANNELS 3 Zrotation Xrotation Yrotation
                JOINT rRing2
                {
                  OFFSET -2.60934 -0.819778 -0.0198488
                  CHANNELS 3 Zrotation Xrotation Yrotation
                  End Site
                  {
                    OFFSET -2.33842 -0.294052 0.168128
                  }
                }
              }
              JOINT rPinky1
              {
                OFFSET -8.27202 -0.0477905 -0.4584
                CHANNELS 3 Zrotation Xrotation Yrotation
                JOINT rPinky2
                {
                  OFFSET -1.82734 -0.647385 -0.700984
                  CHANNELS 3 Zrotation Xrotation Yrotation
                  End Site
                  {
                    OFFSET -1.69225 -0.51767 -0.607171
                  }
                }
              }
            }
          }
        }
      }
      JOINT lCollar
      {
        OFFSET 2.68224 19.2634 -4.8768
        CHANNELS 3 Zrotation Xrotation Yrotation
        JOINT lShldr
        {
          OFFSET 8.77824 -1.95073 1.46304
          CHANNELS 3 Zrotation Xrotation Yrotation
          JOINT lForeArm
          {
            OFFSET 28.1742 -1.7115 0.48768
            CHANNELS 3 Zrotation Xrotation Yrotation
            JOINT lHand
            {
              OFFSET 22.5879 0.773209 7.07136
              CHANNELS 3 Zrotation Xrotation Yrotation
              JOINT lThumb1
              {
                OFFSET 1.2192 -0.487915 3.41376
                CHANNELS 3 Zrotation Xrotation Yrotation
                JOINT lThumb2
                {
                  OFFSET 3.37035 -0.52449 3.41376
                  CHANNELS 3 Zrotation Xrotation Yrotation
                  End Site
                  {
                    OFFSET 1.78271 -1.18214 1.43049
                  }
                }
              }
              JOINT lIndex1
              {
                OFFSET 7.75947 0.938293 5.60832
                CHANNELS 3 Zrotation Xrotation Yrotation
                JOINT lIndex2
                {
                  OFFSET 2.54057 -0.884171 1.56538
                  CHANNELS 3 Zrotation Xrotation Yrotation
                  End Site
                  {
                    OFFSET 1.62519 -0.234802 1.16502
                  }
                }
              }
              JOINT lMid1
              {
                OFFSET 8.24714 1.18213 3.41376
                CHANNELS 3 Zrotation Xrotation Yrotation
                JOINT lMid2
                {
                  OFFSET 3.10165 -0.590103 1.0647
                  CHANNELS 3 Zrotation Xrotation Yrotation
                  End Site
                  {
                    OFFSET 2.48547 -0.328903 0.83742
                  }
                }
              }
              JOINT lRing1
              {
                OFFSET 8.82822 0.546677 1.51678
                CHANNELS 3 Zrotation Xrotation Yrotation
                JOINT lRing2
                {
                  OFFSET 2.60934 -0.819778 -0.0198488
                  CHANNELS 3 Zrotation Xrotation Yrotation
                  End Site
                  {
                    OFFSET 2.33842 -0.294052 0.168128
                  }
                }
              }
              JOINT lPinky1
              {
                OFFSET 8.27202 -0.0477905 -0.4584
                CHANNELS 3 Zrotation Xrotation Yrotation
                JOINT lPinky2
                {
                  OFFSET 1.82734 -0.647385 -0.700984
                  CHANNELS 3 Zrotation Xrotation Yrotation
                  End Site
                  {
                    OFFSET 1.69225 -0.51767 -0.607171
                  }
                }
              }
            }
          }
        }
      }
    }
  }
  JOINT rButtock
  {
    OFFSET -8.77824 4.35084 1.2192
    CHANNELS 3 Zrotation Xrotation Yrotation
    JOINT rThigh
    {
      OFFSET 0 -1.70687 -2.19456
      CHANNELS 3 Zrotation Xrotation Yrotation
      JOINT rShin
      {
        OFFSET 0 -36.8199 0.73152
        CHANNELS 3 Zrotation Xrotation Yrotation
        JOINT rFoot
        {
          OFFSET 0.73152 -45.1104 -5.12064
          CHANNELS 3 Zrotation Xrotation Yrotation
          End Site
          {
            OFFSET -1.1221 -3.69964 12.103
          }
        }
      }
    }
  }
  JOINT lButtock
  {
    OFFSET 8.77824 4.35084 1.2192
    CHANNELS 3 Zrotation Xrotation Yrotation
    JOINT lThigh
    {
      OFFSET 0 -1.70687 -2.19456
      CHANNELS 3 Zrotation Xrotation Yrotation
      JOINT lShin
      {
        OFFSET 0 -36.8199 0.73152
        CHANNELS 3 Zrotation Xrotation Yrotation
        JOINT lFoot
        {
          OFFSET -0.73152 -45.1104 -5.12064
          CHANNELS 3 Zrotation Xrotation Yrotation
          End Site
          {
            OFFSET 1.1221 -3.69964 12.103
          }
        }
      }
    }
  }
}
MOTION
Frames:	4
Frame Time:	0.00833333
43.3538 85.3769 -224.428 -177.349 -22.1845 180.891 2.93915 -1.36531 5.77399 -1.67776 -8.72177 1.57218 1.61731 2.22056 3.19786 -4.59591 -6.57901 5.19428 -0.0 0.0 0.0 -0.0 0.0 0.0 1.04129e-13 -5.29735e-14 5.68257e-13 53.9599 35.1042 18.8494 -10.5935 -4.50932 18.92 -0.726477 23.4591 3.49673 -3.31336e-09 3.77601e-09 -1.69518e-09 -5.7527e-09 6.34919e-09 -2.86384e-09 -3.31335e-09 3.77601e-09 -1.69519e-09 7.73091 5.47488 0.417314 -3.31336e-09 3.77601e-09 -1.69518e-09 2.90554 0.965183 0.102902 -3.31335e-09 3.77601e-09 -1.69518e-09 10.2786 0.731801 0.0259123 -3.31336e-09 3.77602e-09 -1.69517e-09 2.22167 -0.733487 -0.20892 1.04136e-13 -5.29785e-14 5.68055e-13 -75.8474 37.2521 5.76753 11.05 -4.8046 -19.7853 1.61471 33.5646 -5.35061 -7.38705e-10 -1.2935e-09 -1.08443e-09 -1.29754e-09 -2.23806e-09 -1.85349e-09 -7.38709e-10 -1.29349e-09 -1.08442e-09 -7.73091 5.47488 -0.417314 -7.38703e-10 -1.2935e-09 -1.08443e-09 -2.90554 0.965183 -0.102902 -7.38712e-10 -1.2935e-09 -1.08444e-09 -10.2786 0.731801 -0.0259123 -7.38703e-10 -1.2935e-09 -1.08444e-09 -2.22167 -0.733487 0.20892 -2.03217e-16 0.0 -3.88251e-19 3.68935 -13.3474 3.24519 -0.144157 36.8781 1.00451 -16.472 -16.8431 -37.4743 2.03217e-16 0.0 3.88251e-19 -7.00995 -11.9002 -14.005 0.16225 30.0136 -0.857778 9.89022 -21.3785 19.8801
43.0983 85.3778 -224.413 -177.046 -23.5746 180.899 3.36992 -1.24067 6.26902 -1.89475 -8.80137 1.69246 1.87649 2.4912 3.35256 -5.18013 -6.84897 5.40099 -0.0 0.0 0.0 -0.0 0.0 0.0 1.08744e-13 -5.38293e-14 5.77665e-13 55.6606 36.45 17.3414 -10.5754 -4.49814 18.8855 -0.732828 23.5542 3.51266 -3.45936e-09 2.12606e-09 -1.49835e-09 -6.00185e-09 3.50736e-09 -2.52004e-09 -3.45936e-09 2.12607e-09 -1.49836e-09 7.73091 5.47488 0.417314 -3.45936e-09 2.12606e-09 -1.49835e-09 2.90554 0.965183 0.102902 -3.45936e-09 2.12606e-09 -1.49835e-09 10.2786 0.731801 0.0259123 -3.45937e-09 2.12607e-09 -1.49834e-09 2.22167 -0.733487 -0.20892 1.08783e-13 -5.3837e-14 5.77463e-13 -77.6788 38.3713 8.6747 11.131 -4.85775 -19.9399 1.58447 33.2941 -5.29577 -6.28466e-10 -7.33665e-10 -5.08155e-10 -1.09193e-09 -1.26323e-09 -8.62388e-10 -6.28472e-10 -7.3366e-10 -5.08137e-10 -7.73091 5.47488 -0.417314 -6.28463e-10 -7.33664e-10 -5.08151e-10 -2.90554 0.965183 -0.102902 -6.28472e-10 -7.33665e-10 -5.08153e-10 -10.2786 0.731801 -0.0259123 -6.28467e-10 -7.33664e-10 -5.08156e-10 -2.22167 -0.733487 0.20892 -2.03217e-16 0.0 -3.88251e-19 3.44522 -14.104 2.1871 -0.171615 38.1201 1.03481 -15.7976 -16.0411 -36.9018 2.03217e-16 0.0 3.88251e-19 -7.18435 -11.7847 -14.9241 0.160277 29.7303 -0.838586 9.69836 -20.9329 19.8052
42.8431 85.3718 -224.423 -176.851 -24.791 180.95 3.53261 -1.10077 6.8147 -2.00877 -8.83341 1.83603 2.03887 2.61295 3.52557 -5.50422 -6.94297 5.6877 -0.0 0.0 0.0 -0.0 0.0 0.0 1.15272e-13 -6.51963e-14 5.63107e-13 57.1924 37.9637 16.0314 -10.5862 -4.50526 18.9053 -0.745204 23.742 3.54406 -3.41562e-09 1.14808e-09 -1.47819e-09 -5.92689e-09 1.82856e-09 -2.48548e-09 -3.41562e-09 1.14809e-09 -1.4782e-09 7.73091 5.47488 0.417314 -3.41563e-09 1.14808e-09 -1.47819e-09 2.90554 0.965183 0.102902 -3.41562e-09 1.14808e-09 -1.47819e-09 10.2786 0.731801 0.0259123 -3.41563e-09 1.14809e-09 -1.47818e-09 2.22167 -0.733487 -0.20892 1.15326e-13 -6.52058e-14 5.62908e-13 -79.3917 38.9899 11.4617 11.1818 -4.89112 -20.0372 1.57046 33.167 -5.27015 -6.07311e-10 -3.70058e-10 -1.6919e-10 -1.04644e-09 -6.30068e-10 -2.7798e-10 -6.07318e-10 -3.70052e-10 -1.69171e-10 -7.73091 5.47488 -0.417314 -6.07306e-10 -3.70057e-10 -1.69183e-10 -2.90554 0.965183 -0.102902 -6.07316e-10 -3.70057e-10 -1.69185e-10 -10.2786 0.731801 -0.0259123 -6.07312e-10 -3.70056e-10 -1.69186e-10 -2.22167 -0.733487 0.20892 -2.03217e-16 0.0 -3.88251e-19 3.02509 -14.8828 1.19914 -0.202968 39.4577 1.06681 -15.1179 -15.201 -36.3102 2.03217e-16 0.0 3.88251e-19 -7.48735 -11.5975 -15.7606 0.157672 29.4051 -0.815946 9.47065 -20.5305 19.6364
42.5312 85.3782 -224.437 -176.897 -25.9098 180.982 3.27753 -0.92584 7.43829 -1.96518 -8.79538 2.01553 2.02322 2.48884 3.72335 -5.40386 -6.7603 6.09944 -0.0 0.0 0.0 -0.0 0.0 0.0 1.26999e-13 -9.87099e-14 4.96196e-13 58.482 39.7399 14.953 -10.6382 -4.53855 19.0033 -0.772321 24.1462 3.61196 -3.07635e-09 1.21066e-09 -1.76099e-09 -5.34784e-09 1.95074e-09 -2.98046e-09 -3.07634e-09 1.21067e-09 -1.76101e-09 7.73091 5.47488 0.417314 -3.07635e-09 1.21066e-09 -1.761e-09 2.90554 0.965183 0.102902 -3.07635e-09 1.21066e-09 -1.76099e-09 10.2786 0.731801 0.0259123 -3.07636e-09 1.21066e-09 -1.76098e-09 2.22167 -0.733487 -0.20892 1.27051e-13 -9.87202e-14 4.9601e-13 -80.8707 38.9533 14.0282 11.1917 -4.8976 -20.0562 1.58328 33.2839 -5.29367 -7.12133e-10 -3.03288e-10 -2.25841e-10 -1.22901e-09 -5.1352e-10 -3.72037e-10 -7.1214e-10 -3.03285e-10 -2.25824e-10 -7.73091 5.47488 -0.417314 -7.12129e-10 -3.03289e-10 -2.25834e-10 -2.90554 0.965183 -0.102902 -7.12137e-10 -3.03288e-10 -2.25836e-10 -10.2786 0.731801 -0.0259123 -7.12133e-10 -3.03287e-10 -2.25839e-10 -2.22167 -0.733487 0.20892 -2.03217e-16 0.0 -3.88251e-19 2.3129 -15.6918 0.249943 -0.23946 40.9639 1.1042 -14.4831 -14.3266 -35.7579 2.03217e-16 0.0 3.88251e-19 -8.01434 -11.2806 -16.5038 0.15406 28.9958 -0.787845 9.21367 -20.157 19.3993
